<?xml version="1.0" encoding="UTF-8"?>
<svg id="katman_1" data-name="katman 1" xmlns="http://www.w3.org/2000/svg" version="1.1" viewBox="0 0 40 40">
  <defs>
    <style>
      .cls-1 {
        fill: #121826;
        stroke-width: 0px;
      }
    </style>
  </defs>
  <path class="cls-1" d="M32.03,14.68l-3.9,3.01c-.79.61-1.94-.05-1.79-1.05l.12-.84h-.32c-2.48,0-4.72,1.47-5.71,3.74l-1.05,2.41c-1.66,3.83-5.44,6.3-9.61,6.3h-1.81c-.23,0-.42-.19-.42-.42v-3.22c0-.23.19-.42.42-.42h1.94c2.48,0,4.72-1.47,5.71-3.74l1.05-2.41c1.58-3.63,5.17-6.3,9.8-6.3l-.12-.81c-.15-1,.99-1.67,1.79-1.05l3.9,3.01c.59.45.58,1.33,0,1.78h0ZM32.03,25.32l-3.9-3.01c-.8-.62-1.94.06-1.79,1.05l.12.84h-.32c-2.02,0-3.88-.98-5.04-2.57-.19-.26-.6-.21-.72.09-.29.72-.71,1.72-1.59,2.88-.12.16-.11.39.03.54,3.37,3.42,7.54,3.09,7.64,3.11l-.12.81c-.15,1,1,1.66,1.79,1.05l3.9-3.01c.58-.45.58-1.33,0-1.78h0ZM9.76,11.75h-1.81c-.23,0-.42.19-.42.42v3.22c0,.23.19.42.42.42h1.94c2.02,0,3.88.97,5.04,2.56.19.26.59.22.72-.08.4-.93.76-1.78,1.6-2.88.13-.17.11-.4-.04-.55-1.95-1.97-4.63-3.11-7.45-3.11h0Z"/>
</svg>