<?xml version="1.0" encoding="UTF-8"?>
<svg id="katman_1" data-name="katman 1" xmlns="http://www.w3.org/2000/svg" version="1.1" viewBox="0 0 40 40">
  <defs>
    <style>
      .cls-1 {
        fill: #3fac49;
      }

      .cls-1, .cls-2, .cls-3, .cls-4, .cls-5 {
        stroke-width: 0px;
      }

      .cls-2 {
        fill: #5c84c3;
      }

      .cls-3 {
        fill: #fbbc09;
      }

      .cls-4 {
        fill: #fff;
      }

      .cls-5 {
        fill: #e9463a;
      }
    </style>
  </defs>
  <circle class="cls-4" cx="20.48" cy="20" r="18.8"/>
  <path class="cls-3" d="M16.22,21.87l-.63,2.34-2.29.05c-.68-1.27-1.07-2.72-1.07-4.26s.36-2.89,1-4.13h0l2.04.37.89,2.02c-.19.54-.29,1.13-.29,1.74,0,.66.12,1.29.34,1.87Z"/>
  <path class="cls-2" d="M30.05,18.32c.1.54.16,1.1.16,1.68,0,.64-.07,1.27-.2,1.88-.44,2.06-1.58,3.86-3.16,5.13h0s-2.56-.13-2.56-.13l-.36-2.26c1.05-.62,1.87-1.58,2.3-2.73h-4.8v-3.55h8.63Z"/>
  <path class="cls-1" d="M26.85,27.01h0c-1.54,1.24-3.5,1.98-5.62,1.98-3.42,0-6.4-1.91-7.91-4.73l2.91-2.38c.76,2.03,2.71,3.47,5,3.47.98,0,1.91-.27,2.7-.73l2.93,2.4Z"/>
  <path class="cls-5" d="M26.96,13.08l-2.91,2.38c-.82-.51-1.79-.81-2.82-.81-2.34,0-4.33,1.51-5.05,3.61l-2.93-2.4h0c1.5-2.88,4.51-4.85,7.98-4.85,2.18,0,4.18.78,5.73,2.07Z"/>
</svg>