<?xml version="1.0" encoding="UTF-8"?>
<svg id="katman_1" data-name="katman 1" xmlns="http://www.w3.org/2000/svg" version="1.1" xmlns:xlink="http://www.w3.org/1999/xlink" viewBox="0 0 32 32">
  <defs>
    <style>
      .cls-1 {
        fill: url(#Adsız_degrade_12);
        stroke-width: 0px;
      }
    </style>
    <linearGradient id="Adsız_degrade_12" data-name="Adsız degrade 12" x1="16" y1="26.4" x2="16" y2="5.6" gradientUnits="userSpaceOnUse">
      <stop offset="0" stop-color="#136b4d"/>
      <stop offset="1" stop-color="#62eea3"/>
    </linearGradient>
  </defs>
  <path id="Gambi_Icon" data-name="Gambi Icon" class="cls-1" d="M30.4,11.17c-.91.95-1.76,1.85-2.62,2.73-.07.07-.2.12-.3.12-1.58,0-3.15,0-4.81,0,.4-.69.75-1.35,1.15-1.96.26-.39.26-.71,0-1.07-.3-.34-.71-.95-.82-1.06-.2-.2-.34-.31-.63-.31-4.29,0-8.59,0-12.88,0-.3,0-.49.07-.67.33-.32.48-.67.93-1.02,1.39-.13.17-.15.29-.02.48,2.7,3.82,5.15,7.33,7.71,11.08.43.63.48.59.48.59,1.56-2.28,3.05-4.48,4.63-6.79-.4,0-.67,0-.94,0-.28,0-.45,0-.84,0-.89,0-1.34.34-1.68,1.01-.19.37-.31.78-.49,1.23-.33-1.61-1.26-2.6-2.89-2.98,1.59-.39,2.56-1.36,2.87-2.91.27.53.51,1.07.79,1.58.2.37.53.5.98.5,2.7-.02,5.41-.01,8.22-.01-3.6,3.76-7.13,7.46-10.79,11.28-.09-.15-4.34-4.51-4.44-4.61-4.55-4.71-4.92-5.21-9.47-9.91-.43-.44-.43-.45-.02-.88,1.68-1.8,3.35-3.6,5.03-5.39,5.91,0,11.83,0,17.74,0"/>
</svg>