<?xml version="1.0" encoding="UTF-8"?>
<svg id="katman_1" data-name="katman 1" xmlns="http://www.w3.org/2000/svg" xmlns:xlink="http://www.w3.org/1999/xlink" version="1.1" viewBox="0 0 32 32">
  <defs>
    <style>
      .cls-1 {
        fill: url(#Adsız_degrade-2);
      }

      .cls-1, .cls-2, .cls-3, .cls-4, .cls-5, .cls-6 {
        stroke-width: 0px;
      }

      .cls-2 {
        fill: url(#Adsız_degrade-3);
      }

      .cls-3 {
        fill: url(#Adsız_degrade-4);
      }

      .cls-4 {
        fill: url(#Adsız_degrade);
      }

      .cls-5 {
        fill: #62eea3;
      }

      .cls-6 {
        fill: #000;
      }

      .cls-7 {
        display: none;
      }
    </style>
    <linearGradient id="Adsız_degrade" data-name="Adsız degrade" x1="16" y1="3.17" x2="16" y2="32.83" gradientTransform="translate(0 34) scale(1 -1)" gradientUnits="userSpaceOnUse">
      <stop offset="0" stop-color="#136b4d"/>
      <stop offset="1" stop-color="#62eea3"/>
    </linearGradient>
    <linearGradient id="Adsız_degrade-2" data-name="Adsız degrade" x1="16" y1="24.11" x2="16" y2="7.89" gradientTransform="matrix(1,0,0,1,0,0)" xlink:href="#Adsız_degrade"/>
    <linearGradient id="Adsız_degrade-3" data-name="Adsız degrade" x1="16" y1="30.94" x2="16" y2="1.06" gradientTransform="matrix(1,0,0,1,0,0)" xlink:href="#Adsız_degrade"/>
    <linearGradient id="Adsız_degrade-4" data-name="Adsız degrade" x1="16" y1="18.32" x2="16" y2="13.13" gradientTransform="matrix(1,0,0,1,0,0)" xlink:href="#Adsız_degrade"/>
  </defs>
  <g>
    <g class="cls-7">
      <path class="cls-4" d="M24.19,10.35c-.27-.12-.58-.1-.83.05-.25.16-.4.44-.4.73v1.45c0,.48-.39.87-.87.87-.43,0-.79-.31-.86-.73-.71-4.38-3.93-11.55-5.22-11.55s-4.51,7.17-5.22,11.55c-.07.43-.43.73-.86.73-.48,0-.87-.39-.87-.87v-1.45c0-.3-.15-.57-.4-.73-.25-.16-.56-.18-.83-.05-2.96,1.38-4.85,7.39-4.85,10.93,0,5.63,5.36,9.56,13.03,9.56s13.03-3.93,13.03-9.56c0-3.53-1.89-9.55-4.85-10.93h0Z"/>
    </g>
    <g class="cls-7">
      <path class="cls-5" d="M20.22,19.08c-.16-.26-.44-.41-.74-.41h-1.93l-.71-2.82c-.09-.35-.39-.61-.75-.65-.37-.04-.71.15-.87.48l-3.48,6.95c-.13.27-.12.59.04.85s.44.41.74.41h1.93l.71,2.82c.09.35.39.61.75.65.37.04.71-.16.87-.48l3.48-6.95c.13-.27.12-.59-.04-.85h0Z"/>
    </g>
    <g>
      <path class="cls-1" d="M16,24.11c4.47,0,8.11-3.64,8.11-8.11s-3.64-8.11-8.11-8.11-8.11,3.64-8.11,8.11,3.64,8.11,8.11,8.11ZM11.47,13.78l2.13-1.09,1.69-1.69c.39-.39,1.03-.39,1.42,0l1.69,1.69,2.13,1.09c.49.25.69.85.44,1.35l-1.09,2.13-.37,2.36c-.04.28-.37.96-1.15.83l-2.36-.37-2.36.37c-.54.09-1.06-.29-1.15-.83l-.37-2.36-1.09-2.13c-.25-.49-.06-1.1.44-1.35h0Z"/>
      <path class="cls-2" d="M16,30.94c8.24,0,14.94-6.7,14.94-14.94S24.24,1.06,16,1.06,1.06,7.76,1.06,16s6.7,14.94,14.94,14.94ZM16,5.88c5.58,0,10.12,4.54,10.12,10.12s-4.54,10.12-10.12,10.12-10.12-4.54-10.12-10.12S10.42,5.88,16,5.88h0Z"/>
      <path class="cls-3" d="M14.07,16.79l.24,1.53,1.53-.24c.05,0,.1-.01.16-.01s.1,0,.16.01l1.53.24.24-1.53c.02-.1.05-.2.1-.3l.7-1.38-1.38-.7c-.09-.05-.18-.11-.25-.18l-1.1-1.1-1.1,1.1c-.07.07-.16.14-.25.18l-1.38.7.7,1.38c.05.09.08.19.1.3h0Z"/>
    </g>
  </g>
  <g class="cls-7">
    <path class="cls-6" d="M24.58,26.16c-2.42,1.73-5.39,2.75-8.58,2.75s-6.16-1.02-8.58-2.76l-3.26,3.26c-.25.25-.32.63-.19.95s.45.54.81.54h22.45c.35,0,.67-.21.81-.54s.06-.7-.19-.95l-3.26-3.26Z"/>
    <path class="cls-6" d="M16,21.21c3.9,0,7.08-3.18,7.08-7.08s-3.18-7.08-7.08-7.08-7.08,3.18-7.08,7.08,3.18,7.08,7.08,7.08ZM12.04,12.19l1.86-.95,1.48-1.48c.34-.34.89-.34,1.24,0l1.48,1.48,1.86.95c.43.22.6.74.38,1.17l-.95,1.86-.33,2.06c-.04.24-.32.83-1,.73l-2.06-.33-2.06.33c-.48.08-.92-.25-1-.73l-.33-2.06-.95-1.86c-.22-.43-.05-.96.38-1.17h0Z"/>
    <path class="cls-6" d="M16,27.16c7.19,0,13.03-5.85,13.03-13.03S23.19,1.09,16,1.09,2.97,6.94,2.97,14.13s5.85,13.03,13.03,13.03ZM16,5.3c4.87,0,8.83,3.96,8.83,8.83s-3.96,8.83-8.83,8.83-8.83-3.96-8.83-8.83,3.96-8.83,8.83-8.83h0Z"/>
    <path class="cls-6" d="M14.31,14.82l.21,1.34,1.34-.21s.09-.01.14-.01.09,0,.14.01l1.34.21.21-1.34c.01-.09.04-.18.08-.26l.61-1.21-1.21-.61c-.08-.04-.16-.1-.22-.16l-.96-.96-.96.96c-.06.06-.14.12-.22.16l-1.21.61.61,1.21c.04.08.07.17.08.26h0Z"/>
  </g>
</svg>