<?xml version="1.0" encoding="UTF-8"?>
<svg id="katman_1" data-name="katman 1" xmlns="http://www.w3.org/2000/svg" version="1.1" xmlns:xlink="http://www.w3.org/1999/xlink" viewBox="0 0 32 32">
  <defs>
    <style>
      .cls-1 {
        fill: url(#Adsız_degrade_12);
        stroke-width: 0px;
      }
    </style>
    <linearGradient id="Adsız_degrade_12" data-name="Adsız degrade 12" x1="16" y1="27.19" x2="16" y2="4.81" gradientUnits="userSpaceOnUse">
      <stop offset="0" stop-color="#136b4d"/>
      <stop offset="1" stop-color="#62eea3"/>
    </linearGradient>
  </defs>
  <path class="cls-1" d="M16,27.19c-9.93.02-14.95-12.12-7.92-19.13,4.17-4.35,11.68-4.35,15.85,0,7.03,7.01,2,19.15-7.92,19.13ZM16,6.54c-5.21,0-9.45,4.24-9.45,9.45.48,12.52,18.43,12.52,18.91,0,0-5.21-4.24-9.45-9.45-9.45h0ZM19.56,22.77c1.01-.58.23-2.05-.81-1.55-3.84,2.08-8.71-.86-8.65-5.23,0-3.26,2.65-5.91,5.91-5.91,4.34-.05,7.28,4.73,5.27,8.58-.49,1.05,1,1.81,1.56.79,2.6-4.98-1.21-11.19-6.84-11.12-10.15.38-10.14,14.94,0,15.32,1.24,0,2.47-.3,3.56-.88h0ZM17.42,17.04c.79,0,1.42-.64,1.42-1.43-.03-1.37-.94-2.48-2.02-3.29-.49-.36-1.16-.36-1.65,0-1.08.81-1.99,1.92-2.02,3.29-.02,1.01,1.05,1.7,1.97,1.32v.4c0,.35-.28.62-.66.62-.48,0-.88.39-.88.88.08,1.3,1.75.91,2.41.35.66.56,2.33.96,2.41-.35,0-.48-.39-.88-.88-.88-.37,0-.66-.27-.66-.62v-.4c.17.07.35.1.55.1h0Z"/>
</svg>