<?xml version="1.0" encoding="UTF-8"?>
<svg id="katman_1" data-name="katman 1" xmlns="http://www.w3.org/2000/svg" version="1.1" xmlns:xlink="http://www.w3.org/1999/xlink" viewBox="0 0 32 32">
  <defs>
    <style>
      .cls-1 {
        fill: url(#Adsız_degrade_12);
        stroke-width: 0px;
      }
    </style>
    <linearGradient id="Adsız_degrade_12" data-name="Adsız degrade 12" x1="16" y1="25.12" x2="16" y2="7.47" gradientUnits="userSpaceOnUse">
      <stop offset="0" stop-color="#136b4d"/>
      <stop offset="1" stop-color="#62eea3"/>
    </linearGradient>
  </defs>
  <path class="cls-1" d="M26.94,10.59c-3.52-5.78-8.82-1.76-8.82-1.76-.34.26-.98.47-1.41.47h-1.42c-.43,0-1.06-.21-1.41-.47,0,0-5.3-4.02-8.82,1.76-3.52,5.78-2.1,12.07-2.1,12.07.25,1.54,1.07,2.57,2.61,2.44,1.54-.13,4.89-4.15,4.89-4.15.28-.33.86-.6,1.28-.6h8.51c.43,0,1.01.27,1.28.6,0,0,3.34,4.02,4.89,4.15,1.54.13,2.36-.9,2.61-2.44,0,0,1.42-6.29-2.1-12.07ZM12.8,15.3h-1.83v1.76s-.39.3-.98.29c-.6,0-.87-.32-.87-.32v-1.72h-1.72s-.22-.22-.27-.8c-.06-.58.24-1.05.24-1.05h1.83v-1.83s.38-.2.92-.19c.54.02.94.22.94.22v1.79s1.72,0,1.72,0c0,0,.3.39.33.85.02.47-.28,1-.28,1ZM21.17,17.3c-.8,0-1.44-.65-1.44-1.44s.64-1.44,1.44-1.44,1.45.64,1.45,1.44c0,.8-.65,1.44-1.45,1.44ZM21.17,13.33c-.8,0-1.44-.65-1.44-1.44s.64-1.44,1.44-1.44,1.45.64,1.45,1.44c0,.8-.65,1.44-1.45,1.44ZM24.77,15.46c-.8,0-1.44-.65-1.44-1.44s.64-1.44,1.44-1.44,1.45.65,1.45,1.44-.65,1.44-1.45,1.44Z"/>
</svg>